<svg width="689" height="485" viewBox="0 0 689 485" fill="none" xmlns="http://www.w3.org/2000/svg">
<g clip-path="url(#clip0_2031_16)">
<path fill-rule="evenodd" clip-rule="evenodd" d="M85.458 112.787C178.009 187.266 318.369 198.227 496.214 124.636C534.935 108.614 560.977 106.105 576.752 108.593C590.733 110.797 597.237 116.783 601.161 124.155C605.968 133.189 608.96 148.788 605.36 171.365C601.827 193.519 592.316 219.56 576.156 246.391C512.126 352.701 351.09 459.535 109.898 369.348L81.178 446.154C361.485 550.967 563.186 426.859 646.399 288.698C667.05 254.411 680.881 218.489 686.337 184.277C691.724 150.49 689.349 115.323 673.548 85.632C656.864 54.2803 627.519 33.5842 589.523 27.5932C553.321 21.8851 511.259 29.6675 464.862 48.8666C301.957 116.276 197.005 97.2986 136.868 48.9035C75.3594 -0.595215 46.569 -91.9256 60.3262 -198.631C87.6278 -410.391 280.213 -652.963 634.208 -632.815L638.868 -714.683C237.362 -737.535 11.1976 -458.856 -21.0007 -209.116C-36.9934 -85.0719 -5.72125 39.4102 85.458 112.787Z" fill="url(#paint0_linear_2031_16)"/>
<g filter="url(#filter0_ii_2031_16)">
<path fill-rule="evenodd" clip-rule="evenodd" d="M523.917 22.107C500.204 11.171 470.953 15.2454 449.434 29.3784L446.975 25.6347L449.434 29.3784C431.356 41.2515 416.019 58.7206 408.58 78.822C407.721 81.1419 405.144 82.3266 402.824 81.468C400.504 80.6094 399.32 78.0327 400.178 75.7128C408.393 53.5176 425.13 34.6238 444.517 21.8909L446.591 25.0487L444.517 21.8909C468.212 6.32834 500.731 1.54959 527.669 13.9724L527.669 13.9724C552.441 25.3976 566.004 50.505 569.829 76.9207C573.651 103.319 567.933 132.059 552.928 151.777C551.43 153.746 548.62 154.127 546.651 152.629C544.682 151.131 544.301 148.321 545.799 146.352C559.062 128.923 564.515 102.738 560.963 78.2043C557.413 53.6881 545.057 31.8566 523.917 22.107Z" fill="url(#paint1_linear_2031_16)"/>
</g>
<path d="M523.407 242.991C526.475 238.935 525.674 233.161 521.618 230.093C517.562 227.026 511.788 227.827 508.72 231.883C505.653 235.938 506.454 241.713 510.51 244.78C514.565 247.848 520.34 247.047 523.407 242.991Z" stroke="#111130" stroke-width="1.2622" stroke-miterlimit="10" stroke-linecap="round" stroke-linejoin="round"/>
<g filter="url(#filter1_ii_2031_16)">
<path d="M549.599 152.751C549.139 152.547 548.69 152.301 548.258 152.01C544.212 149.285 543.16 143.72 545.91 139.58C554 127.392 558.164 114.243 557.635 102.553C557.411 97.605 561.19 93.3516 566.076 93.0515C570.962 92.7523 575.104 96.5194 575.329 101.467C576.033 117.003 570.788 134.043 560.561 149.447C558.104 153.145 553.449 154.455 549.599 152.751Z" fill="url(#paint2_linear_2031_16)"/>
</g>
<g filter="url(#filter2_ii_2031_16)">
<path d="M488.821 269.137C515.841 281.097 550.31 262.407 565.809 227.391C581.308 192.375 571.968 154.294 544.948 142.334C517.929 130.374 483.46 149.065 467.961 184.08C452.462 219.096 461.801 257.177 488.821 269.137Z" fill="url(#paint3_linear_2031_16)"/>
</g>
<path d="M361.02 212.568C384.731 223.064 417.111 201.845 433.342 165.175C449.574 128.505 443.51 90.2702 419.799 79.7748C396.087 69.2793 363.707 90.498 347.476 127.168C331.245 163.838 337.308 202.073 361.02 212.568Z" fill="#111130"/>
<path d="M472.404 263.064C496.116 273.56 528.397 252.564 544.506 216.17C560.615 179.776 554.452 141.764 530.741 131.269C507.03 120.774 474.749 141.769 458.639 178.163C442.53 214.557 448.693 252.569 472.404 263.064Z" fill="#111130"/>
<g filter="url(#filter3_ii_2031_16)">
<path d="M344.971 193.524C367.855 203.653 398.476 184.596 413.365 150.959C428.254 117.322 421.773 81.8425 398.888 71.7132C376.004 61.5839 345.383 80.6407 330.494 114.278C315.605 147.915 322.087 183.395 344.971 193.524Z" fill="url(#paint4_linear_2031_16)"/>
</g>
<g filter="url(#filter4_ii_2031_16)">
<path d="M322.384 139.345C329.276 142.396 338.723 136.153 343.482 125.4C348.242 114.647 346.512 103.457 339.62 100.406C332.727 97.3547 323.281 103.598 318.521 114.351C313.761 125.104 315.491 136.294 322.384 139.345Z" fill="url(#paint5_linear_2031_16)"/>
</g>
<g filter="url(#filter5_ii_2031_16)">
<path d="M394.259 94.7391C390.531 93.0893 388.599 88.7719 389.905 84.6617C402.674 44.4734 426.771 28.348 427.79 27.6815C431.633 25.169 436.662 26.2668 439.025 30.1366C441.38 33.9934 440.195 39.1458 436.383 41.667C435.973 41.9457 416.159 55.6924 405.429 89.4668C404.025 93.8842 399.412 96.3907 395.126 95.0638C394.826 94.971 394.538 94.8626 394.259 94.7391Z" fill="url(#paint6_linear_2031_16)"/>
</g>
<path d="M505.385 162.56C506.279 161.339 508.025 161.223 508.235 162.37L511.448 179.933C511.535 180.405 511.916 180.708 512.451 180.729L532.349 181.497C533.65 181.547 533.727 183.11 532.476 184.049L513.33 198.407C512.815 198.793 512.476 199.347 512.438 199.862L511.05 219.026C510.96 220.278 509.261 221.361 508.278 220.793L493.232 212.104C492.827 211.87 492.236 211.91 491.678 212.208L470.922 223.283C469.566 224.007 468.438 223.113 469.082 221.824L478.929 202.096C479.194 201.565 479.168 201.036 478.86 200.705L467.42 188.386C466.673 187.581 467.675 185.945 469.055 185.717L490.187 182.213C490.756 182.119 491.331 181.752 491.699 181.25L505.385 162.56Z" fill="#3366CC"/>
<path fill-rule="evenodd" clip-rule="evenodd" d="M576.156 246.629C512.126 352.939 351.09 459.774 109.898 369.586L81.178 446.393C361.485 551.205 563.186 427.097 646.399 288.936C667.05 254.649 680.881 218.727 686.337 184.516C691.724 150.728 689.349 115.561 673.548 85.8704C656.864 54.5187 627.519 33.8225 589.523 27.8316C553.321 22.1234 511.259 29.9059 464.862 49.1049L496.214 124.874C534.935 108.852 560.977 106.344 576.752 108.831C590.733 111.035 597.237 117.021 601.161 124.393C605.968 133.427 608.96 149.026 605.36 171.603C601.827 193.757 592.316 219.798 576.156 246.629Z" fill="url(#paint7_linear_2031_16)"/>
</g>
<defs>
<filter id="filter0_ii_2031_16" x="397.899" y="2.90607" width="175.08" height="154.638" filterUnits="userSpaceOnUse" color-interpolation-filters="sRGB">
<feFlood flood-opacity="0" result="BackgroundImageFix"/>
<feBlend mode="normal" in="SourceGraphic" in2="BackgroundImageFix" result="shape"/>
<feColorMatrix in="SourceAlpha" type="matrix" values="0 0 0 0 0 0 0 0 0 0 0 0 0 0 0 0 0 0 127 0" result="hardAlpha"/>
<feOffset dx="2" dy="-5"/>
<feGaussianBlur stdDeviation="2"/>
<feComposite in2="hardAlpha" operator="arithmetic" k2="-1" k3="1"/>
<feColorMatrix type="matrix" values="0 0 0 0 0 0 0 0 0 0 0 0 0 0 0 0 0 0 0.25 0"/>
<feBlend mode="normal" in2="shape" result="effect1_innerShadow_2031_16"/>
<feColorMatrix in="SourceAlpha" type="matrix" values="0 0 0 0 0 0 0 0 0 0 0 0 0 0 0 0 0 0 127 0" result="hardAlpha"/>
<feOffset dx="-2" dy="4"/>
<feGaussianBlur stdDeviation="2.5"/>
<feComposite in2="hardAlpha" operator="arithmetic" k2="-1" k3="1"/>
<feColorMatrix type="matrix" values="0 0 0 0 0.317647 0 0 0 0 0.517647 0 0 0 0 0.917647 0 0 0 1 0"/>
<feBlend mode="normal" in2="effect1_innerShadow_2031_16" result="effect2_innerShadow_2031_16"/>
</filter>
<filter id="filter1_ii_2031_16" x="542.378" y="89.0349" width="35.014" height="68.4534" filterUnits="userSpaceOnUse" color-interpolation-filters="sRGB">
<feFlood flood-opacity="0" result="BackgroundImageFix"/>
<feBlend mode="normal" in="SourceGraphic" in2="BackgroundImageFix" result="shape"/>
<feColorMatrix in="SourceAlpha" type="matrix" values="0 0 0 0 0 0 0 0 0 0 0 0 0 0 0 0 0 0 127 0" result="hardAlpha"/>
<feOffset dx="2" dy="-5"/>
<feGaussianBlur stdDeviation="2"/>
<feComposite in2="hardAlpha" operator="arithmetic" k2="-1" k3="1"/>
<feColorMatrix type="matrix" values="0 0 0 0 0 0 0 0 0 0 0 0 0 0 0 0 0 0 0.25 0"/>
<feBlend mode="normal" in2="shape" result="effect1_innerShadow_2031_16"/>
<feColorMatrix in="SourceAlpha" type="matrix" values="0 0 0 0 0 0 0 0 0 0 0 0 0 0 0 0 0 0 127 0" result="hardAlpha"/>
<feOffset dx="-2" dy="4"/>
<feGaussianBlur stdDeviation="2.5"/>
<feComposite in2="hardAlpha" operator="arithmetic" k2="-1" k3="1"/>
<feColorMatrix type="matrix" values="0 0 0 0 0.317647 0 0 0 0 0.517647 0 0 0 0 0.917647 0 0 0 1 0"/>
<feBlend mode="normal" in2="effect1_innerShadow_2031_16" result="effect2_innerShadow_2031_16"/>
</filter>
<filter id="filter2_ii_2031_16" x="458.474" y="134.72" width="116.822" height="142.032" filterUnits="userSpaceOnUse" color-interpolation-filters="sRGB">
<feFlood flood-opacity="0" result="BackgroundImageFix"/>
<feBlend mode="normal" in="SourceGraphic" in2="BackgroundImageFix" result="shape"/>
<feColorMatrix in="SourceAlpha" type="matrix" values="0 0 0 0 0 0 0 0 0 0 0 0 0 0 0 0 0 0 127 0" result="hardAlpha"/>
<feOffset dx="2" dy="-5"/>
<feGaussianBlur stdDeviation="2"/>
<feComposite in2="hardAlpha" operator="arithmetic" k2="-1" k3="1"/>
<feColorMatrix type="matrix" values="0 0 0 0 0 0 0 0 0 0 0 0 0 0 0 0 0 0 0.25 0"/>
<feBlend mode="normal" in2="shape" result="effect1_innerShadow_2031_16"/>
<feColorMatrix in="SourceAlpha" type="matrix" values="0 0 0 0 0 0 0 0 0 0 0 0 0 0 0 0 0 0 127 0" result="hardAlpha"/>
<feOffset dx="-2" dy="4"/>
<feGaussianBlur stdDeviation="2.5"/>
<feComposite in2="hardAlpha" operator="arithmetic" k2="-1" k3="1"/>
<feColorMatrix type="matrix" values="0 0 0 0 0.317647 0 0 0 0 0.517647 0 0 0 0 0.917647 0 0 0 1 0"/>
<feBlend mode="normal" in2="effect1_innerShadow_2031_16" result="effect2_innerShadow_2031_16"/>
</filter>
<filter id="filter3_ii_2031_16" x="320.49" y="64.9948" width="102.879" height="135.247" filterUnits="userSpaceOnUse" color-interpolation-filters="sRGB">
<feFlood flood-opacity="0" result="BackgroundImageFix"/>
<feBlend mode="normal" in="SourceGraphic" in2="BackgroundImageFix" result="shape"/>
<feColorMatrix in="SourceAlpha" type="matrix" values="0 0 0 0 0 0 0 0 0 0 0 0 0 0 0 0 0 0 127 0" result="hardAlpha"/>
<feOffset dx="2" dy="-5"/>
<feGaussianBlur stdDeviation="2"/>
<feComposite in2="hardAlpha" operator="arithmetic" k2="-1" k3="1"/>
<feColorMatrix type="matrix" values="0 0 0 0 0 0 0 0 0 0 0 0 0 0 0 0 0 0 0.25 0"/>
<feBlend mode="normal" in2="shape" result="effect1_innerShadow_2031_16"/>
<feColorMatrix in="SourceAlpha" type="matrix" values="0 0 0 0 0 0 0 0 0 0 0 0 0 0 0 0 0 0 127 0" result="hardAlpha"/>
<feOffset dx="-2" dy="4"/>
<feGaussianBlur stdDeviation="2.5"/>
<feComposite in2="hardAlpha" operator="arithmetic" k2="-1" k3="1"/>
<feColorMatrix type="matrix" values="0 0 0 0 0.317647 0 0 0 0 0.517647 0 0 0 0 0.917647 0 0 0 1 0"/>
<feBlend mode="normal" in2="effect1_innerShadow_2031_16" result="effect2_innerShadow_2031_16"/>
</filter>
<filter id="filter4_ii_2031_16" x="313.833" y="95.632" width="34.3365" height="48.487" filterUnits="userSpaceOnUse" color-interpolation-filters="sRGB">
<feFlood flood-opacity="0" result="BackgroundImageFix"/>
<feBlend mode="normal" in="SourceGraphic" in2="BackgroundImageFix" result="shape"/>
<feColorMatrix in="SourceAlpha" type="matrix" values="0 0 0 0 0 0 0 0 0 0 0 0 0 0 0 0 0 0 127 0" result="hardAlpha"/>
<feOffset dx="2" dy="-5"/>
<feGaussianBlur stdDeviation="2"/>
<feComposite in2="hardAlpha" operator="arithmetic" k2="-1" k3="1"/>
<feColorMatrix type="matrix" values="0 0 0 0 0 0 0 0 0 0 0 0 0 0 0 0 0 0 0.25 0"/>
<feBlend mode="normal" in2="shape" result="effect1_innerShadow_2031_16"/>
<feColorMatrix in="SourceAlpha" type="matrix" values="0 0 0 0 0 0 0 0 0 0 0 0 0 0 0 0 0 0 127 0" result="hardAlpha"/>
<feOffset dx="-2" dy="4"/>
<feGaussianBlur stdDeviation="2.5"/>
<feComposite in2="hardAlpha" operator="arithmetic" k2="-1" k3="1"/>
<feColorMatrix type="matrix" values="0 0 0 0 0.317647 0 0 0 0 0.517647 0 0 0 0 0.917647 0 0 0 1 0"/>
<feBlend mode="normal" in2="effect1_innerShadow_2031_16" result="effect2_innerShadow_2031_16"/>
</filter>
<filter id="filter5_ii_2031_16" x="387.497" y="26.3325" width="54.7389" height="73.0865" filterUnits="userSpaceOnUse" color-interpolation-filters="sRGB">
<feFlood flood-opacity="0" result="BackgroundImageFix"/>
<feBlend mode="normal" in="SourceGraphic" in2="BackgroundImageFix" result="shape"/>
<feColorMatrix in="SourceAlpha" type="matrix" values="0 0 0 0 0 0 0 0 0 0 0 0 0 0 0 0 0 0 127 0" result="hardAlpha"/>
<feOffset dx="2" dy="3"/>
<feGaussianBlur stdDeviation="2"/>
<feComposite in2="hardAlpha" operator="arithmetic" k2="-1" k3="1"/>
<feColorMatrix type="matrix" values="0 0 0 0 0 0 0 0 0 0 0 0 0 0 0 0 0 0 0.25 0"/>
<feBlend mode="normal" in2="shape" result="effect1_innerShadow_2031_16"/>
<feColorMatrix in="SourceAlpha" type="matrix" values="0 0 0 0 0 0 0 0 0 0 0 0 0 0 0 0 0 0 127 0" result="hardAlpha"/>
<feOffset dx="-2" dy="4"/>
<feGaussianBlur stdDeviation="2.5"/>
<feComposite in2="hardAlpha" operator="arithmetic" k2="-1" k3="1"/>
<feColorMatrix type="matrix" values="0 0 0 0 0.317647 0 0 0 0 0.517647 0 0 0 0 0.917647 0 0 0 1 0"/>
<feBlend mode="normal" in2="effect1_innerShadow_2031_16" result="effect2_innerShadow_2031_16"/>
</filter>
<linearGradient id="paint0_linear_2031_16" x1="596.016" y1="-201.528" x2="-799.735" y2="204.869" gradientUnits="userSpaceOnUse">
<stop stop-color="white"/>
<stop offset="1" stop-color="#DFEAFF"/>
</linearGradient>
<linearGradient id="paint1_linear_2031_16" x1="556.604" y1="26.7704" x2="426.855" y2="151.909" gradientUnits="userSpaceOnUse">
<stop stop-color="#3366CC"/>
<stop offset="1" stop-color="#0B3EA4"/>
</linearGradient>
<linearGradient id="paint2_linear_2031_16" x1="577.746" y1="97.148" x2="522.865" y2="106.15" gradientUnits="userSpaceOnUse">
<stop stop-color="#3366CC"/>
<stop offset="1" stop-color="#0B3EA4"/>
</linearGradient>
<linearGradient id="paint3_linear_2031_16" x1="565.929" y1="151.621" x2="408.238" y2="238.031" gradientUnits="userSpaceOnUse">
<stop stop-color="#3366CC"/>
<stop offset="1" stop-color="#0B3EA4"/>
</linearGradient>
<linearGradient id="paint4_linear_2031_16" x1="416.657" y1="79.5783" x2="268.009" y2="149.495" gradientUnits="userSpaceOnUse">
<stop stop-color="#3366CC"/>
<stop offset="1" stop-color="#0B3EA4"/>
</linearGradient>
<linearGradient id="paint5_linear_2031_16" x1="344.972" y1="102.775" x2="298.068" y2="123.165" gradientUnits="userSpaceOnUse">
<stop stop-color="#3366CC"/>
<stop offset="1" stop-color="#0B3EA4"/>
</linearGradient>
<linearGradient id="paint6_linear_2031_16" x1="435.766" y1="27.1387" x2="371.112" y2="34.6197" gradientUnits="userSpaceOnUse">
<stop stop-color="#3366CC"/>
<stop offset="1" stop-color="#0B3EA4"/>
</linearGradient>
<linearGradient id="paint7_linear_2031_16" x1="596.016" y1="-201.29" x2="-799.735" y2="205.107" gradientUnits="userSpaceOnUse">
<stop stop-color="white"/>
<stop offset="1" stop-color="#DFEAFF"/>
</linearGradient>
<clipPath id="clip0_2031_16">
<rect width="689" height="485" fill="white"/>
</clipPath>
</defs>
</svg>
