<svg width="714" height="1202" viewBox="0 0 714 1202" fill="none" xmlns="http://www.w3.org/2000/svg">
<path fill-rule="evenodd" clip-rule="evenodd" d="M110.458 828.787C203.009 903.266 343.369 914.227 521.214 840.636C559.935 824.614 585.977 822.105 601.752 824.593C615.733 826.797 622.237 832.783 626.161 840.155C630.968 849.189 633.96 864.788 630.36 887.365C626.827 909.519 617.316 935.56 601.156 962.391C537.126 1068.7 376.09 1175.54 134.898 1085.35L106.178 1162.15C386.485 1266.97 588.186 1142.86 671.399 1004.7C692.05 970.411 705.881 934.489 711.337 900.277C716.724 866.49 714.349 831.323 698.548 801.632C681.864 770.28 652.519 749.584 614.523 743.593C578.321 737.885 536.259 745.668 489.862 764.867C326.957 832.276 222.005 813.299 161.868 764.904C100.359 715.405 71.569 624.074 85.3262 517.369C112.628 305.609 305.213 63.037 659.208 83.185L663.868 1.31748C262.362 -21.5346 36.1976 257.144 3.99933 506.884C-11.9934 630.928 19.2787 755.41 110.458 828.787Z" fill="url(#paint0_linear_2015_14)"/>
<g filter="url(#filter0_ii_2015_14)">
<path fill-rule="evenodd" clip-rule="evenodd" d="M548.917 738.107C525.204 727.171 495.953 731.245 474.434 745.378L471.975 741.635L474.434 745.378C456.356 757.252 441.019 774.721 433.58 794.822C432.721 797.142 430.144 798.327 427.824 797.468C425.504 796.609 424.32 794.033 425.178 791.713C433.393 769.518 450.13 750.624 469.517 737.891L471.591 741.049L469.517 737.891C493.212 722.328 525.731 717.55 552.669 729.972L552.669 729.972C577.441 741.398 591.004 766.505 594.829 792.921C598.651 819.319 592.933 848.059 577.928 867.777C576.43 869.746 573.62 870.127 571.651 868.629C569.682 867.131 569.301 864.321 570.799 862.352C584.062 844.923 589.515 818.738 585.963 794.204C582.413 769.688 570.057 747.857 548.917 738.107Z" fill="url(#paint1_linear_2015_14)"/>
</g>
<path d="M548.407 958.991C551.475 954.935 550.674 949.161 546.618 946.093C542.562 943.026 536.788 943.827 533.72 947.883C530.653 951.938 531.454 957.713 535.51 960.78C539.565 963.848 545.34 963.047 548.407 958.991Z" stroke="#111130" stroke-width="1.2622" stroke-miterlimit="10" stroke-linecap="round" stroke-linejoin="round"/>
<g filter="url(#filter1_ii_2015_14)">
<path d="M574.599 868.751C574.139 868.547 573.69 868.301 573.258 868.01C569.212 865.285 568.16 859.72 570.91 855.58C579 843.392 583.164 830.243 582.635 818.553C582.411 813.605 586.19 809.352 591.076 809.052C595.962 808.752 600.104 812.519 600.329 817.467C601.033 833.003 595.788 850.043 585.561 865.447C583.104 869.145 578.449 870.455 574.599 868.751Z" fill="url(#paint2_linear_2015_14)"/>
</g>
<g filter="url(#filter2_ii_2015_14)">
<path d="M513.821 985.137C540.841 997.097 575.31 978.407 590.809 943.391C606.308 908.375 596.968 870.294 569.948 858.334C542.929 846.374 508.46 865.065 492.961 900.08C477.462 935.096 486.801 973.177 513.821 985.137Z" fill="url(#paint3_linear_2015_14)"/>
</g>
<path d="M386.02 928.568C409.731 939.064 442.111 917.845 458.342 881.175C474.574 844.505 468.51 806.27 444.799 795.775C421.087 785.279 388.707 806.498 372.476 843.168C356.245 879.838 362.308 918.073 386.02 928.568Z" fill="#111130"/>
<path d="M497.404 979.064C521.116 989.56 553.397 968.564 569.506 932.17C585.615 895.776 579.452 857.764 555.741 847.269C532.03 836.774 499.749 857.769 483.639 894.163C467.53 930.557 473.693 968.569 497.404 979.064Z" fill="#111130"/>
<g filter="url(#filter3_ii_2015_14)">
<path d="M369.971 909.524C392.855 919.653 423.476 900.596 438.365 866.959C453.254 833.322 446.773 797.842 423.888 787.713C401.004 777.584 370.383 796.641 355.494 830.278C340.605 863.915 347.087 899.395 369.971 909.524Z" fill="url(#paint4_linear_2015_14)"/>
</g>
<g filter="url(#filter4_ii_2015_14)">
<path d="M347.384 855.345C354.276 858.396 363.723 852.153 368.482 841.4C373.242 830.647 371.512 819.457 364.62 816.406C357.727 813.355 348.281 819.598 343.521 830.351C338.761 841.104 340.491 852.294 347.384 855.345Z" fill="url(#paint5_linear_2015_14)"/>
</g>
<g filter="url(#filter5_ii_2015_14)">
<path d="M419.259 810.739C415.531 809.089 413.599 804.772 414.905 800.662C427.674 760.473 451.771 744.348 452.79 743.682C456.633 741.169 461.662 742.267 464.025 746.137C466.38 749.993 465.195 755.146 461.383 757.667C460.973 757.946 441.159 771.692 430.429 805.467C429.025 809.884 424.412 812.391 420.126 811.064C419.826 810.971 419.538 810.863 419.259 810.739Z" fill="url(#paint6_linear_2015_14)"/>
</g>
<path d="M530.385 878.56C531.279 877.339 533.025 877.223 533.235 878.37L536.448 895.933C536.535 896.405 536.916 896.708 537.451 896.729L557.349 897.497C558.65 897.547 558.727 899.11 557.476 900.049L538.33 914.407C537.815 914.793 537.476 915.347 537.438 915.862L536.05 935.026C535.96 936.278 534.261 937.361 533.278 936.793L518.232 928.104C517.827 927.87 517.236 927.91 516.678 928.208L495.922 939.283C494.566 940.007 493.438 939.113 494.082 937.824L503.929 918.096C504.194 917.565 504.168 917.036 503.86 916.705L492.42 904.386C491.673 903.581 492.675 901.945 494.055 901.717L515.187 898.213C515.756 898.119 516.331 897.752 516.699 897.25L530.385 878.56Z" fill="#3366CC"/>
<path fill-rule="evenodd" clip-rule="evenodd" d="M601.156 962.629C537.126 1068.94 376.09 1175.77 134.898 1085.59L106.178 1162.39C386.485 1267.21 588.186 1143.1 671.399 1004.94C692.05 970.649 705.881 934.727 711.337 900.516C716.724 866.728 714.349 831.561 698.548 801.87C681.864 770.519 652.519 749.823 614.523 743.832C578.321 738.123 536.259 745.906 489.862 765.105L521.214 840.874C559.935 824.852 585.977 822.344 601.752 824.831C615.733 827.035 622.237 833.021 626.161 840.393C630.968 849.427 633.96 865.026 630.36 887.603C626.827 909.757 617.316 935.798 601.156 962.629Z" fill="url(#paint7_linear_2015_14)"/>
<defs>
<filter id="filter0_ii_2015_14" x="422.899" y="718.906" width="175.08" height="154.638" filterUnits="userSpaceOnUse" color-interpolation-filters="sRGB">
<feFlood flood-opacity="0" result="BackgroundImageFix"/>
<feBlend mode="normal" in="SourceGraphic" in2="BackgroundImageFix" result="shape"/>
<feColorMatrix in="SourceAlpha" type="matrix" values="0 0 0 0 0 0 0 0 0 0 0 0 0 0 0 0 0 0 127 0" result="hardAlpha"/>
<feOffset dx="2" dy="-5"/>
<feGaussianBlur stdDeviation="2"/>
<feComposite in2="hardAlpha" operator="arithmetic" k2="-1" k3="1"/>
<feColorMatrix type="matrix" values="0 0 0 0 0 0 0 0 0 0 0 0 0 0 0 0 0 0 0.25 0"/>
<feBlend mode="normal" in2="shape" result="effect1_innerShadow_2015_14"/>
<feColorMatrix in="SourceAlpha" type="matrix" values="0 0 0 0 0 0 0 0 0 0 0 0 0 0 0 0 0 0 127 0" result="hardAlpha"/>
<feOffset dx="-2" dy="4"/>
<feGaussianBlur stdDeviation="2.5"/>
<feComposite in2="hardAlpha" operator="arithmetic" k2="-1" k3="1"/>
<feColorMatrix type="matrix" values="0 0 0 0 0.317647 0 0 0 0 0.517647 0 0 0 0 0.917647 0 0 0 1 0"/>
<feBlend mode="normal" in2="effect1_innerShadow_2015_14" result="effect2_innerShadow_2015_14"/>
</filter>
<filter id="filter1_ii_2015_14" x="567.378" y="805.035" width="35.014" height="68.4534" filterUnits="userSpaceOnUse" color-interpolation-filters="sRGB">
<feFlood flood-opacity="0" result="BackgroundImageFix"/>
<feBlend mode="normal" in="SourceGraphic" in2="BackgroundImageFix" result="shape"/>
<feColorMatrix in="SourceAlpha" type="matrix" values="0 0 0 0 0 0 0 0 0 0 0 0 0 0 0 0 0 0 127 0" result="hardAlpha"/>
<feOffset dx="2" dy="-5"/>
<feGaussianBlur stdDeviation="2"/>
<feComposite in2="hardAlpha" operator="arithmetic" k2="-1" k3="1"/>
<feColorMatrix type="matrix" values="0 0 0 0 0 0 0 0 0 0 0 0 0 0 0 0 0 0 0.25 0"/>
<feBlend mode="normal" in2="shape" result="effect1_innerShadow_2015_14"/>
<feColorMatrix in="SourceAlpha" type="matrix" values="0 0 0 0 0 0 0 0 0 0 0 0 0 0 0 0 0 0 127 0" result="hardAlpha"/>
<feOffset dx="-2" dy="4"/>
<feGaussianBlur stdDeviation="2.5"/>
<feComposite in2="hardAlpha" operator="arithmetic" k2="-1" k3="1"/>
<feColorMatrix type="matrix" values="0 0 0 0 0.317647 0 0 0 0 0.517647 0 0 0 0 0.917647 0 0 0 1 0"/>
<feBlend mode="normal" in2="effect1_innerShadow_2015_14" result="effect2_innerShadow_2015_14"/>
</filter>
<filter id="filter2_ii_2015_14" x="483.474" y="850.72" width="116.822" height="142.032" filterUnits="userSpaceOnUse" color-interpolation-filters="sRGB">
<feFlood flood-opacity="0" result="BackgroundImageFix"/>
<feBlend mode="normal" in="SourceGraphic" in2="BackgroundImageFix" result="shape"/>
<feColorMatrix in="SourceAlpha" type="matrix" values="0 0 0 0 0 0 0 0 0 0 0 0 0 0 0 0 0 0 127 0" result="hardAlpha"/>
<feOffset dx="2" dy="-5"/>
<feGaussianBlur stdDeviation="2"/>
<feComposite in2="hardAlpha" operator="arithmetic" k2="-1" k3="1"/>
<feColorMatrix type="matrix" values="0 0 0 0 0 0 0 0 0 0 0 0 0 0 0 0 0 0 0.25 0"/>
<feBlend mode="normal" in2="shape" result="effect1_innerShadow_2015_14"/>
<feColorMatrix in="SourceAlpha" type="matrix" values="0 0 0 0 0 0 0 0 0 0 0 0 0 0 0 0 0 0 127 0" result="hardAlpha"/>
<feOffset dx="-2" dy="4"/>
<feGaussianBlur stdDeviation="2.5"/>
<feComposite in2="hardAlpha" operator="arithmetic" k2="-1" k3="1"/>
<feColorMatrix type="matrix" values="0 0 0 0 0.317647 0 0 0 0 0.517647 0 0 0 0 0.917647 0 0 0 1 0"/>
<feBlend mode="normal" in2="effect1_innerShadow_2015_14" result="effect2_innerShadow_2015_14"/>
</filter>
<filter id="filter3_ii_2015_14" x="345.49" y="780.995" width="102.879" height="135.247" filterUnits="userSpaceOnUse" color-interpolation-filters="sRGB">
<feFlood flood-opacity="0" result="BackgroundImageFix"/>
<feBlend mode="normal" in="SourceGraphic" in2="BackgroundImageFix" result="shape"/>
<feColorMatrix in="SourceAlpha" type="matrix" values="0 0 0 0 0 0 0 0 0 0 0 0 0 0 0 0 0 0 127 0" result="hardAlpha"/>
<feOffset dx="2" dy="-5"/>
<feGaussianBlur stdDeviation="2"/>
<feComposite in2="hardAlpha" operator="arithmetic" k2="-1" k3="1"/>
<feColorMatrix type="matrix" values="0 0 0 0 0 0 0 0 0 0 0 0 0 0 0 0 0 0 0.25 0"/>
<feBlend mode="normal" in2="shape" result="effect1_innerShadow_2015_14"/>
<feColorMatrix in="SourceAlpha" type="matrix" values="0 0 0 0 0 0 0 0 0 0 0 0 0 0 0 0 0 0 127 0" result="hardAlpha"/>
<feOffset dx="-2" dy="4"/>
<feGaussianBlur stdDeviation="2.5"/>
<feComposite in2="hardAlpha" operator="arithmetic" k2="-1" k3="1"/>
<feColorMatrix type="matrix" values="0 0 0 0 0.317647 0 0 0 0 0.517647 0 0 0 0 0.917647 0 0 0 1 0"/>
<feBlend mode="normal" in2="effect1_innerShadow_2015_14" result="effect2_innerShadow_2015_14"/>
</filter>
<filter id="filter4_ii_2015_14" x="338.833" y="811.632" width="34.3365" height="48.487" filterUnits="userSpaceOnUse" color-interpolation-filters="sRGB">
<feFlood flood-opacity="0" result="BackgroundImageFix"/>
<feBlend mode="normal" in="SourceGraphic" in2="BackgroundImageFix" result="shape"/>
<feColorMatrix in="SourceAlpha" type="matrix" values="0 0 0 0 0 0 0 0 0 0 0 0 0 0 0 0 0 0 127 0" result="hardAlpha"/>
<feOffset dx="2" dy="-5"/>
<feGaussianBlur stdDeviation="2"/>
<feComposite in2="hardAlpha" operator="arithmetic" k2="-1" k3="1"/>
<feColorMatrix type="matrix" values="0 0 0 0 0 0 0 0 0 0 0 0 0 0 0 0 0 0 0.25 0"/>
<feBlend mode="normal" in2="shape" result="effect1_innerShadow_2015_14"/>
<feColorMatrix in="SourceAlpha" type="matrix" values="0 0 0 0 0 0 0 0 0 0 0 0 0 0 0 0 0 0 127 0" result="hardAlpha"/>
<feOffset dx="-2" dy="4"/>
<feGaussianBlur stdDeviation="2.5"/>
<feComposite in2="hardAlpha" operator="arithmetic" k2="-1" k3="1"/>
<feColorMatrix type="matrix" values="0 0 0 0 0.317647 0 0 0 0 0.517647 0 0 0 0 0.917647 0 0 0 1 0"/>
<feBlend mode="normal" in2="effect1_innerShadow_2015_14" result="effect2_innerShadow_2015_14"/>
</filter>
<filter id="filter5_ii_2015_14" x="412.497" y="742.332" width="54.7389" height="73.0865" filterUnits="userSpaceOnUse" color-interpolation-filters="sRGB">
<feFlood flood-opacity="0" result="BackgroundImageFix"/>
<feBlend mode="normal" in="SourceGraphic" in2="BackgroundImageFix" result="shape"/>
<feColorMatrix in="SourceAlpha" type="matrix" values="0 0 0 0 0 0 0 0 0 0 0 0 0 0 0 0 0 0 127 0" result="hardAlpha"/>
<feOffset dx="2" dy="3"/>
<feGaussianBlur stdDeviation="2"/>
<feComposite in2="hardAlpha" operator="arithmetic" k2="-1" k3="1"/>
<feColorMatrix type="matrix" values="0 0 0 0 0 0 0 0 0 0 0 0 0 0 0 0 0 0 0.25 0"/>
<feBlend mode="normal" in2="shape" result="effect1_innerShadow_2015_14"/>
<feColorMatrix in="SourceAlpha" type="matrix" values="0 0 0 0 0 0 0 0 0 0 0 0 0 0 0 0 0 0 127 0" result="hardAlpha"/>
<feOffset dx="-2" dy="4"/>
<feGaussianBlur stdDeviation="2.5"/>
<feComposite in2="hardAlpha" operator="arithmetic" k2="-1" k3="1"/>
<feColorMatrix type="matrix" values="0 0 0 0 0.317647 0 0 0 0 0.517647 0 0 0 0 0.917647 0 0 0 1 0"/>
<feBlend mode="normal" in2="effect1_innerShadow_2015_14" result="effect2_innerShadow_2015_14"/>
</filter>
<linearGradient id="paint0_linear_2015_14" x1="621.016" y1="514.472" x2="-774.735" y2="920.869" gradientUnits="userSpaceOnUse">
<stop stop-color="white"/>
<stop offset="1" stop-color="#DFEAFF"/>
</linearGradient>
<linearGradient id="paint1_linear_2015_14" x1="581.604" y1="742.77" x2="451.855" y2="867.909" gradientUnits="userSpaceOnUse">
<stop stop-color="#3366CC"/>
<stop offset="1" stop-color="#0B3EA4"/>
</linearGradient>
<linearGradient id="paint2_linear_2015_14" x1="602.746" y1="813.148" x2="547.865" y2="822.15" gradientUnits="userSpaceOnUse">
<stop stop-color="#3366CC"/>
<stop offset="1" stop-color="#0B3EA4"/>
</linearGradient>
<linearGradient id="paint3_linear_2015_14" x1="590.929" y1="867.621" x2="433.238" y2="954.031" gradientUnits="userSpaceOnUse">
<stop stop-color="#3366CC"/>
<stop offset="1" stop-color="#0B3EA4"/>
</linearGradient>
<linearGradient id="paint4_linear_2015_14" x1="441.657" y1="795.578" x2="293.009" y2="865.495" gradientUnits="userSpaceOnUse">
<stop stop-color="#3366CC"/>
<stop offset="1" stop-color="#0B3EA4"/>
</linearGradient>
<linearGradient id="paint5_linear_2015_14" x1="369.972" y1="818.775" x2="323.068" y2="839.165" gradientUnits="userSpaceOnUse">
<stop stop-color="#3366CC"/>
<stop offset="1" stop-color="#0B3EA4"/>
</linearGradient>
<linearGradient id="paint6_linear_2015_14" x1="460.766" y1="743.139" x2="396.112" y2="750.62" gradientUnits="userSpaceOnUse">
<stop stop-color="#3366CC"/>
<stop offset="1" stop-color="#0B3EA4"/>
</linearGradient>
<linearGradient id="paint7_linear_2015_14" x1="621.016" y1="514.71" x2="-774.735" y2="921.107" gradientUnits="userSpaceOnUse">
<stop stop-color="white"/>
<stop offset="1" stop-color="#DFEAFF"/>
</linearGradient>
</defs>
</svg>
