<svg width="212" height="213" viewBox="0 0 212 213" fill="none" xmlns="http://www.w3.org/2000/svg">
<g filter="url(#filter0_ii_1_48)">
<circle cx="106" cy="106.425" r="106" fill="url(#paint0_linear_1_48)"/>
</g>
<path fill-rule="evenodd" clip-rule="evenodd" d="M65.6425 59.1776C64.9885 60.461 64.9885 62.1412 64.9885 65.5015V152.302C64.9885 155.662 64.9885 157.342 65.6425 158.625C66.2177 159.754 67.1356 160.672 68.2646 161.248C69.5481 161.902 71.2282 161.902 74.5885 161.902H89.3019C92.6622 161.902 94.3423 161.902 95.6258 161.248C96.7548 160.672 97.6727 159.754 98.2479 158.625C98.9019 157.342 98.9019 155.662 98.9019 152.302V65.5015C98.9019 62.1412 98.9019 60.461 98.2479 59.1776C97.6727 58.0486 96.7548 57.1307 95.6258 56.5555C94.3423 55.9015 92.6622 55.9015 89.3019 55.9015H74.5885C71.2282 55.9015 69.5481 55.9015 68.2646 56.5555C67.1356 57.1307 66.2177 58.0486 65.6425 59.1776ZM113.752 59.1776C113.098 60.461 113.098 62.1412 113.098 65.5015V152.302C113.098 155.662 113.098 157.342 113.752 158.625C114.327 159.754 115.245 160.672 116.374 161.248C117.658 161.902 119.338 161.902 122.698 161.902H137.412C140.772 161.902 142.452 161.902 143.735 161.248C144.864 160.672 145.782 159.754 146.358 158.625C147.012 157.342 147.012 155.662 147.012 152.302V65.5015C147.012 62.1412 147.012 60.461 146.358 59.1776C145.782 58.0486 144.864 57.1307 143.735 56.5555C142.452 55.9015 140.772 55.9015 137.412 55.9015H122.698C119.338 55.9015 117.658 55.9015 116.374 56.5555C115.245 57.1307 114.327 58.0486 113.752 59.1776Z" fill="url(#paint1_linear_1_48)"/>
<defs>
<filter id="filter0_ii_1_48" x="-2" y="-3.57538" width="216" height="220" filterUnits="userSpaceOnUse" color-interpolation-filters="sRGB">
<feFlood flood-opacity="0" result="BackgroundImageFix"/>
<feBlend mode="normal" in="SourceGraphic" in2="BackgroundImageFix" result="shape"/>
<feColorMatrix in="SourceAlpha" type="matrix" values="0 0 0 0 0 0 0 0 0 0 0 0 0 0 0 0 0 0 127 0" result="hardAlpha"/>
<feOffset dx="2" dy="-5"/>
<feGaussianBlur stdDeviation="2"/>
<feComposite in2="hardAlpha" operator="arithmetic" k2="-1" k3="1"/>
<feColorMatrix type="matrix" values="0 0 0 0 0 0 0 0 0 0 0 0 0 0 0 0 0 0 0.25 0"/>
<feBlend mode="normal" in2="shape" result="effect1_innerShadow_1_48"/>
<feColorMatrix in="SourceAlpha" type="matrix" values="0 0 0 0 0 0 0 0 0 0 0 0 0 0 0 0 0 0 127 0" result="hardAlpha"/>
<feOffset dx="-2" dy="4"/>
<feGaussianBlur stdDeviation="2.5"/>
<feComposite in2="hardAlpha" operator="arithmetic" k2="-1" k3="1"/>
<feColorMatrix type="matrix" values="0 0 0 0 0.317647 0 0 0 0 0.517647 0 0 0 0 0.917647 0 0 0 1 0"/>
<feBlend mode="normal" in2="effect1_innerShadow_1_48" result="effect2_innerShadow_1_48"/>
</filter>
<linearGradient id="paint0_linear_1_48" x1="151.456" y1="0.424622" x2="-7.10105e-06" y2="257.117" gradientUnits="userSpaceOnUse">
<stop stop-color="#3366CC"/>
<stop offset="1" stop-color="#0B3EA4"/>
</linearGradient>
<linearGradient id="paint1_linear_1_48" x1="114.244" y1="77.0777" x2="21.9394" y2="274.014" gradientUnits="userSpaceOnUse">
<stop stop-color="white"/>
<stop offset="1" stop-color="white" stop-opacity="0"/>
</linearGradient>
</defs>
</svg>
