<svg width="898" height="1528" viewBox="0 0 898 1528" fill="none" xmlns="http://www.w3.org/2000/svg">
<path fill-rule="evenodd" clip-rule="evenodd" d="M138.179 1048.79C252.96 1141.15 429.036 1156.46 656.493 1062.35C707.607 1041.2 743.566 1037.2 766.909 1040.88C788.46 1044.28 800.183 1054.15 807.106 1067.15C814.913 1081.82 818.686 1104.81 813.778 1135.59C808.937 1165.94 796.028 1201 774.508 1236.73C689.041 1378.62 475.191 1519.06 158.065 1400.49L129.348 1477.3C485.582 1610.49 740.096 1452.78 844.75 1279.04C870.76 1235.86 887.991 1190.92 894.755 1148.5C901.451 1106.51 898.294 1063.95 879.492 1028.63C859.806 991.64 825.242 967.062 779.68 959.879C735.911 952.978 683.934 962.258 625.143 986.582C412.625 1074.51 271.954 1051.18 189.585 984.899C105.846 917.518 68.3119 794.781 86.4004 654.495C122.364 375.576 375.917 57.1417 839.915 83.5478L844.574 1.68031C333.073 -27.4292 45.9358 327.103 5.07367 644.009C-15.2509 801.637 24.7672 957.527 138.179 1048.79Z" fill="url(#paint0_linear_2001_14)"/>
<g filter="url(#filter0_ii_2001_14)">
<path fill-rule="evenodd" clip-rule="evenodd" d="M687.193 938.734C656.019 924.357 617.566 929.713 589.278 948.293L586.045 943.371L589.278 948.293C565.513 963.901 545.35 986.866 535.57 1013.29C534.441 1016.34 531.054 1017.9 528.004 1016.77C524.955 1015.64 523.397 1012.25 524.526 1009.2C535.324 980.026 557.327 955.188 582.813 938.449L585.539 942.601L582.813 938.449C613.963 917.991 656.713 911.709 692.125 928.04L692.125 928.04C724.691 943.059 742.52 976.066 747.548 1010.79C752.573 1045.5 745.056 1083.28 725.33 1109.2C723.361 1111.79 719.667 1112.29 717.079 1110.32C714.491 1108.35 713.989 1104.65 715.959 1102.07C733.394 1079.15 740.563 1044.73 735.893 1012.48C731.227 980.25 714.983 951.55 687.193 938.734Z" fill="url(#paint1_linear_2001_14)"/>
</g>
<path d="M686.523 1229.11C690.555 1223.78 689.502 1216.18 684.17 1212.15C678.839 1208.12 671.248 1209.17 667.215 1214.5C663.183 1219.84 664.236 1227.43 669.567 1231.46C674.899 1235.49 682.49 1234.44 686.523 1229.11Z" stroke="#111130" stroke-width="1.2622" stroke-miterlimit="10" stroke-linecap="round" stroke-linejoin="round"/>
<g filter="url(#filter1_ii_2001_14)">
<path d="M720.955 1110.48C720.35 1110.21 719.759 1109.89 719.191 1109.5C713.872 1105.92 712.49 1098.61 716.104 1093.16C726.74 1077.14 732.214 1059.86 731.519 1044.49C731.224 1037.98 736.192 1032.39 742.615 1032C749.038 1031.6 754.484 1036.56 754.779 1043.06C755.704 1063.48 748.809 1085.88 735.365 1106.14C732.136 1111 726.015 1112.72 720.955 1110.48Z" fill="url(#paint2_linear_2001_14)"/>
</g>
<g filter="url(#filter2_ii_2001_14)">
<path d="M641.056 1263.48C676.577 1279.2 721.889 1254.63 742.264 1208.6C762.639 1162.57 750.361 1112.51 714.841 1096.78C679.32 1081.06 634.008 1105.63 613.633 1151.66C593.258 1197.7 605.536 1247.76 641.056 1263.48Z" fill="url(#paint3_linear_2001_14)"/>
</g>
<path d="M473.048 1189.11C504.219 1202.91 546.786 1175.02 568.124 1126.81C589.461 1078.6 581.49 1028.34 550.319 1014.54C519.148 1000.75 476.581 1028.64 455.243 1076.85C433.906 1125.05 441.877 1175.32 473.048 1189.11Z" fill="#111130"/>
<path d="M619.474 1255.5C650.645 1269.29 693.082 1241.69 714.259 1193.85C735.436 1146.01 727.335 1096.04 696.164 1082.24C664.993 1068.44 622.556 1096.04 601.379 1143.88C580.202 1191.73 588.303 1241.7 619.474 1255.5Z" fill="#111130"/>
<g filter="url(#filter3_ii_2001_14)">
<path d="M451.948 1164.08C482.032 1177.39 522.286 1152.34 541.859 1108.12C561.432 1063.9 552.912 1017.26 522.828 1003.94C492.744 990.629 452.49 1015.68 432.917 1059.9C413.344 1104.12 421.864 1150.76 451.948 1164.08Z" fill="url(#paint4_linear_2001_14)"/>
</g>
<g filter="url(#filter4_ii_2001_14)">
<path d="M422.255 1092.85C431.316 1096.86 443.734 1088.66 449.991 1074.52C456.248 1060.39 453.974 1045.67 444.913 1041.66C435.852 1037.65 423.434 1045.86 417.177 1060C410.92 1074.13 413.193 1088.84 422.255 1092.85Z" fill="url(#paint5_linear_2001_14)"/>
</g>
<g filter="url(#filter5_ii_2001_14)">
<path d="M516.744 1034.22C511.844 1032.05 509.304 1026.37 511.021 1020.97C527.806 968.136 559.484 946.938 560.825 946.062C565.876 942.759 572.488 944.202 575.594 949.289C578.69 954.359 577.132 961.133 572.12 964.447C571.581 964.813 545.534 982.885 531.429 1027.28C529.583 1033.09 523.519 1036.39 517.884 1034.64C517.49 1034.52 517.111 1034.38 516.744 1034.22Z" fill="url(#paint6_linear_2001_14)"/>
</g>
<path d="M663.556 1122.38C664.451 1121.16 666.197 1121.04 666.407 1122.19L670.845 1146.45C670.931 1146.92 671.313 1147.23 671.848 1147.25L699.334 1148.31C700.634 1148.36 700.712 1149.92 699.461 1150.86L673.013 1170.69C672.498 1171.08 672.159 1171.63 672.122 1172.15L670.204 1198.62C670.114 1199.87 668.415 1200.95 667.432 1200.39L646.649 1188.38C646.244 1188.15 645.653 1188.19 645.094 1188.49L616.424 1203.79C615.068 1204.51 613.94 1203.62 614.584 1202.33L628.186 1175.08C628.451 1174.55 628.425 1174.02 628.117 1173.69L612.315 1156.67C611.567 1155.86 612.569 1154.23 613.95 1154L643.14 1149.16C643.709 1149.07 644.284 1148.7 644.652 1148.2L663.556 1122.38Z" fill="#3366CC"/>
<path fill-rule="evenodd" clip-rule="evenodd" d="M774.508 1236.73C689.041 1378.62 475.191 1519.06 158.065 1400.5L129.348 1477.3C485.582 1610.49 740.096 1452.78 844.75 1279.04C870.76 1235.86 887.991 1190.92 894.755 1148.5C901.451 1106.51 898.294 1063.95 879.492 1028.63C859.806 991.64 825.242 967.062 779.68 959.879C735.911 952.978 683.934 962.258 625.143 986.582L656.493 1062.35C707.607 1041.2 743.566 1037.2 766.909 1040.88C788.46 1044.28 800.183 1054.15 807.106 1067.15C814.913 1081.82 818.686 1104.81 813.778 1135.59C808.937 1165.94 796.028 1201 774.508 1236.73Z" fill="url(#paint7_linear_2001_14)"/>
<defs>
<filter id="filter0_ii_2001_14" x="522.158" y="914.75" width="228.902" height="200.77" filterUnits="userSpaceOnUse" color-interpolation-filters="sRGB">
<feFlood flood-opacity="0" result="BackgroundImageFix"/>
<feBlend mode="normal" in="SourceGraphic" in2="BackgroundImageFix" result="shape"/>
<feColorMatrix in="SourceAlpha" type="matrix" values="0 0 0 0 0 0 0 0 0 0 0 0 0 0 0 0 0 0 127 0" result="hardAlpha"/>
<feOffset dx="2" dy="-5"/>
<feGaussianBlur stdDeviation="2"/>
<feComposite in2="hardAlpha" operator="arithmetic" k2="-1" k3="1"/>
<feColorMatrix type="matrix" values="0 0 0 0 0 0 0 0 0 0 0 0 0 0 0 0 0 0 0.25 0"/>
<feBlend mode="normal" in2="shape" result="effect1_innerShadow_2001_14"/>
<feColorMatrix in="SourceAlpha" type="matrix" values="0 0 0 0 0 0 0 0 0 0 0 0 0 0 0 0 0 0 127 0" result="hardAlpha"/>
<feOffset dx="-2" dy="4"/>
<feGaussianBlur stdDeviation="2.5"/>
<feComposite in2="hardAlpha" operator="arithmetic" k2="-1" k3="1"/>
<feColorMatrix type="matrix" values="0 0 0 0 0.317647 0 0 0 0 0.517647 0 0 0 0 0.917647 0 0 0 1 0"/>
<feBlend mode="normal" in2="effect1_innerShadow_2001_14" result="effect2_innerShadow_2001_14"/>
</filter>
<filter id="filter1_ii_2001_14" x="712.09" y="1027.98" width="44.7712" height="87.4721" filterUnits="userSpaceOnUse" color-interpolation-filters="sRGB">
<feFlood flood-opacity="0" result="BackgroundImageFix"/>
<feBlend mode="normal" in="SourceGraphic" in2="BackgroundImageFix" result="shape"/>
<feColorMatrix in="SourceAlpha" type="matrix" values="0 0 0 0 0 0 0 0 0 0 0 0 0 0 0 0 0 0 127 0" result="hardAlpha"/>
<feOffset dx="2" dy="-5"/>
<feGaussianBlur stdDeviation="2"/>
<feComposite in2="hardAlpha" operator="arithmetic" k2="-1" k3="1"/>
<feColorMatrix type="matrix" values="0 0 0 0 0 0 0 0 0 0 0 0 0 0 0 0 0 0 0.25 0"/>
<feBlend mode="normal" in2="shape" result="effect1_innerShadow_2001_14"/>
<feColorMatrix in="SourceAlpha" type="matrix" values="0 0 0 0 0 0 0 0 0 0 0 0 0 0 0 0 0 0 127 0" result="hardAlpha"/>
<feOffset dx="-2" dy="4"/>
<feGaussianBlur stdDeviation="2.5"/>
<feComposite in2="hardAlpha" operator="arithmetic" k2="-1" k3="1"/>
<feColorMatrix type="matrix" values="0 0 0 0 0.317647 0 0 0 0 0.517647 0 0 0 0 0.917647 0 0 0 1 0"/>
<feBlend mode="normal" in2="effect1_innerShadow_2001_14" result="effect2_innerShadow_2001_14"/>
</filter>
<filter id="filter2_ii_2001_14" x="601.791" y="1088.03" width="152.316" height="184.198" filterUnits="userSpaceOnUse" color-interpolation-filters="sRGB">
<feFlood flood-opacity="0" result="BackgroundImageFix"/>
<feBlend mode="normal" in="SourceGraphic" in2="BackgroundImageFix" result="shape"/>
<feColorMatrix in="SourceAlpha" type="matrix" values="0 0 0 0 0 0 0 0 0 0 0 0 0 0 0 0 0 0 127 0" result="hardAlpha"/>
<feOffset dx="2" dy="-5"/>
<feGaussianBlur stdDeviation="2"/>
<feComposite in2="hardAlpha" operator="arithmetic" k2="-1" k3="1"/>
<feColorMatrix type="matrix" values="0 0 0 0 0 0 0 0 0 0 0 0 0 0 0 0 0 0 0.25 0"/>
<feBlend mode="normal" in2="shape" result="effect1_innerShadow_2001_14"/>
<feColorMatrix in="SourceAlpha" type="matrix" values="0 0 0 0 0 0 0 0 0 0 0 0 0 0 0 0 0 0 127 0" result="hardAlpha"/>
<feOffset dx="-2" dy="4"/>
<feGaussianBlur stdDeviation="2.5"/>
<feComposite in2="hardAlpha" operator="arithmetic" k2="-1" k3="1"/>
<feColorMatrix type="matrix" values="0 0 0 0 0.317647 0 0 0 0 0.517647 0 0 0 0 0.917647 0 0 0 1 0"/>
<feBlend mode="normal" in2="effect1_innerShadow_2001_14" result="effect2_innerShadow_2001_14"/>
</filter>
<filter id="filter3_ii_2001_14" x="420.395" y="996.371" width="133.986" height="175.279" filterUnits="userSpaceOnUse" color-interpolation-filters="sRGB">
<feFlood flood-opacity="0" result="BackgroundImageFix"/>
<feBlend mode="normal" in="SourceGraphic" in2="BackgroundImageFix" result="shape"/>
<feColorMatrix in="SourceAlpha" type="matrix" values="0 0 0 0 0 0 0 0 0 0 0 0 0 0 0 0 0 0 127 0" result="hardAlpha"/>
<feOffset dx="2" dy="-5"/>
<feGaussianBlur stdDeviation="2"/>
<feComposite in2="hardAlpha" operator="arithmetic" k2="-1" k3="1"/>
<feColorMatrix type="matrix" values="0 0 0 0 0 0 0 0 0 0 0 0 0 0 0 0 0 0 0.25 0"/>
<feBlend mode="normal" in2="shape" result="effect1_innerShadow_2001_14"/>
<feColorMatrix in="SourceAlpha" type="matrix" values="0 0 0 0 0 0 0 0 0 0 0 0 0 0 0 0 0 0 127 0" result="hardAlpha"/>
<feOffset dx="-2" dy="4"/>
<feGaussianBlur stdDeviation="2.5"/>
<feComposite in2="hardAlpha" operator="arithmetic" k2="-1" k3="1"/>
<feColorMatrix type="matrix" values="0 0 0 0 0.317647 0 0 0 0 0.517647 0 0 0 0 0.917647 0 0 0 1 0"/>
<feBlend mode="normal" in2="effect1_innerShadow_2001_14" result="effect2_innerShadow_2001_14"/>
</filter>
<filter id="filter4_ii_2001_14" x="411.644" y="1036.65" width="43.8804" height="61.2242" filterUnits="userSpaceOnUse" color-interpolation-filters="sRGB">
<feFlood flood-opacity="0" result="BackgroundImageFix"/>
<feBlend mode="normal" in="SourceGraphic" in2="BackgroundImageFix" result="shape"/>
<feColorMatrix in="SourceAlpha" type="matrix" values="0 0 0 0 0 0 0 0 0 0 0 0 0 0 0 0 0 0 127 0" result="hardAlpha"/>
<feOffset dx="2" dy="-5"/>
<feGaussianBlur stdDeviation="2"/>
<feComposite in2="hardAlpha" operator="arithmetic" k2="-1" k3="1"/>
<feColorMatrix type="matrix" values="0 0 0 0 0 0 0 0 0 0 0 0 0 0 0 0 0 0 0.25 0"/>
<feBlend mode="normal" in2="shape" result="effect1_innerShadow_2001_14"/>
<feColorMatrix in="SourceAlpha" type="matrix" values="0 0 0 0 0 0 0 0 0 0 0 0 0 0 0 0 0 0 127 0" result="hardAlpha"/>
<feOffset dx="-2" dy="4"/>
<feGaussianBlur stdDeviation="2.5"/>
<feComposite in2="hardAlpha" operator="arithmetic" k2="-1" k3="1"/>
<feColorMatrix type="matrix" values="0 0 0 0 0.317647 0 0 0 0 0.517647 0 0 0 0 0.917647 0 0 0 1 0"/>
<feBlend mode="normal" in2="effect1_innerShadow_2001_14" result="effect2_innerShadow_2001_14"/>
</filter>
<filter id="filter5_ii_2001_14" x="508.485" y="944.288" width="70.7012" height="94.8212" filterUnits="userSpaceOnUse" color-interpolation-filters="sRGB">
<feFlood flood-opacity="0" result="BackgroundImageFix"/>
<feBlend mode="normal" in="SourceGraphic" in2="BackgroundImageFix" result="shape"/>
<feColorMatrix in="SourceAlpha" type="matrix" values="0 0 0 0 0 0 0 0 0 0 0 0 0 0 0 0 0 0 127 0" result="hardAlpha"/>
<feOffset dx="2" dy="3"/>
<feGaussianBlur stdDeviation="2"/>
<feComposite in2="hardAlpha" operator="arithmetic" k2="-1" k3="1"/>
<feColorMatrix type="matrix" values="0 0 0 0 0 0 0 0 0 0 0 0 0 0 0 0 0 0 0.25 0"/>
<feBlend mode="normal" in2="shape" result="effect1_innerShadow_2001_14"/>
<feColorMatrix in="SourceAlpha" type="matrix" values="0 0 0 0 0 0 0 0 0 0 0 0 0 0 0 0 0 0 127 0" result="hardAlpha"/>
<feOffset dx="-2" dy="4"/>
<feGaussianBlur stdDeviation="2.5"/>
<feComposite in2="hardAlpha" operator="arithmetic" k2="-1" k3="1"/>
<feColorMatrix type="matrix" values="0 0 0 0 0.317647 0 0 0 0 0.517647 0 0 0 0 0.917647 0 0 0 1 0"/>
<feBlend mode="normal" in2="effect1_innerShadow_2001_14" result="effect2_innerShadow_2001_14"/>
</filter>
<linearGradient id="paint0_linear_2001_14" x1="789.924" y1="652.281" x2="-1012.24" y2="1177.07" gradientUnits="userSpaceOnUse">
<stop stop-color="white"/>
<stop offset="1" stop-color="#DFEAFF"/>
</linearGradient>
<linearGradient id="paint1_linear_2001_14" x1="730.163" y1="944.864" x2="559.595" y2="1109.37" gradientUnits="userSpaceOnUse">
<stop stop-color="#3366CC"/>
<stop offset="1" stop-color="#0B3EA4"/>
</linearGradient>
<linearGradient id="paint2_linear_2001_14" x1="757.957" y1="1037.38" x2="685.81" y2="1049.22" gradientUnits="userSpaceOnUse">
<stop stop-color="#3366CC"/>
<stop offset="1" stop-color="#0B3EA4"/>
</linearGradient>
<linearGradient id="paint3_linear_2001_14" x1="742.422" y1="1108.99" x2="535.121" y2="1222.59" gradientUnits="userSpaceOnUse">
<stop stop-color="#3366CC"/>
<stop offset="1" stop-color="#0B3EA4"/>
</linearGradient>
<linearGradient id="paint4_linear_2001_14" x1="546.187" y1="1014.28" x2="350.773" y2="1106.2" gradientUnits="userSpaceOnUse">
<stop stop-color="#3366CC"/>
<stop offset="1" stop-color="#0B3EA4"/>
</linearGradient>
<linearGradient id="paint5_linear_2001_14" x1="451.949" y1="1044.78" x2="390.29" y2="1071.58" gradientUnits="userSpaceOnUse">
<stop stop-color="#3366CC"/>
<stop offset="1" stop-color="#0B3EA4"/>
</linearGradient>
<linearGradient id="paint6_linear_2001_14" x1="571.309" y1="945.348" x2="486.316" y2="955.183" gradientUnits="userSpaceOnUse">
<stop stop-color="#3366CC"/>
<stop offset="1" stop-color="#0B3EA4"/>
</linearGradient>
<linearGradient id="paint7_linear_2001_14" x1="789.924" y1="652.28" x2="-1012.24" y2="1177.07" gradientUnits="userSpaceOnUse">
<stop stop-color="white"/>
<stop offset="1" stop-color="#DFEAFF"/>
</linearGradient>
</defs>
</svg>
