<svg width="749" height="826" viewBox="0 0 749 826" fill="none" xmlns="http://www.w3.org/2000/svg">
<g clip-path="url(#clip0_2001_15)">
<path fill-rule="evenodd" clip-rule="evenodd" d="M115.518 633.787C208.068 708.266 348.429 719.227 526.274 645.636C564.994 629.614 591.037 627.105 606.811 629.593C620.792 631.797 627.297 637.783 631.22 645.155C636.028 654.189 639.019 669.788 635.419 692.365C631.887 714.519 622.375 740.56 606.215 767.391C542.186 873.701 381.15 980.535 139.957 890.348L111.238 967.154C391.545 1071.97 593.245 947.859 676.459 809.698C697.11 775.411 710.941 739.489 716.396 705.277C721.784 671.49 719.408 636.323 703.608 606.632C686.923 575.28 657.579 554.584 619.583 548.593C583.381 542.885 541.319 550.668 494.921 569.867C332.016 637.276 227.064 618.299 166.927 569.904C105.419 520.405 76.6285 429.074 90.3857 322.369C117.687 110.609 310.273 -131.963 664.268 -111.815L668.927 -193.683C267.422 -216.535 41.2572 62.1435 9.0589 311.884C-6.93384 435.928 24.3383 560.41 115.518 633.787Z" fill="url(#paint0_linear_2001_15)"/>
<g filter="url(#filter0_ii_2001_15)">
<path fill-rule="evenodd" clip-rule="evenodd" d="M553.977 543.107C530.263 532.171 501.013 536.245 479.494 550.378L477.035 546.635L479.494 550.378C461.416 562.252 446.078 579.721 438.639 599.822C437.781 602.142 435.204 603.327 432.884 602.468C430.564 601.609 429.379 599.033 430.238 596.713C438.452 574.518 455.189 555.624 474.576 542.891L476.65 546.049L474.576 542.891C498.272 527.328 530.791 522.55 557.728 534.972L557.728 534.972C582.501 546.398 596.064 571.505 599.888 597.921C603.71 624.319 597.992 653.059 582.987 672.777C581.489 674.746 578.679 675.127 576.711 673.629C574.742 672.131 574.361 669.321 575.859 667.352C589.122 649.923 594.575 623.738 591.023 599.204C587.473 574.688 575.116 552.857 553.977 543.107Z" fill="url(#paint1_linear_2001_15)"/>
</g>
<path d="M553.467 763.991C556.534 759.935 555.733 754.161 551.678 751.093C547.622 748.026 541.847 748.827 538.78 752.883C535.712 756.938 536.513 762.713 540.569 765.78C544.625 768.848 550.399 768.047 553.467 763.991Z" stroke="#111130" stroke-width="1.2622" stroke-miterlimit="10" stroke-linecap="round" stroke-linejoin="round"/>
<g filter="url(#filter1_ii_2001_15)">
<path d="M579.659 673.751C579.199 673.547 578.75 673.301 578.317 673.01C574.271 670.285 573.22 664.72 575.969 660.58C584.06 648.392 588.224 635.243 587.695 623.552C587.47 618.605 591.25 614.352 596.136 614.051C601.021 613.752 605.164 617.519 605.389 622.467C606.092 638.003 600.847 655.042 590.62 670.447C588.164 674.145 583.508 675.455 579.659 673.751Z" fill="url(#paint2_linear_2001_15)"/>
</g>
<g filter="url(#filter2_ii_2001_15)">
<path d="M518.881 790.137C545.901 802.097 580.369 783.407 595.868 748.391C611.368 713.375 602.028 675.294 575.008 663.334C547.988 651.374 513.52 670.065 498.021 705.08C482.521 740.096 491.861 778.177 518.881 790.137Z" fill="url(#paint3_linear_2001_15)"/>
</g>
<path d="M391.079 733.568C414.791 744.064 447.171 722.845 463.402 686.175C479.633 649.505 473.57 611.27 449.858 600.775C426.147 590.279 393.767 611.498 377.536 648.168C361.304 684.838 367.368 723.073 391.079 733.568Z" fill="#111130"/>
<path d="M502.464 784.064C526.175 794.56 558.456 773.564 574.566 737.17C590.675 700.776 584.512 662.764 560.801 652.269C537.089 641.774 504.808 662.769 488.699 699.163C472.59 735.557 478.752 773.569 502.464 784.064Z" fill="#111130"/>
<g filter="url(#filter3_ii_2001_15)">
<path d="M375.031 714.524C397.915 724.653 428.536 705.596 443.425 671.959C458.314 638.322 451.832 602.842 428.948 592.713C406.064 582.584 375.443 601.641 360.554 635.278C345.665 668.915 352.146 704.395 375.031 714.524Z" fill="url(#paint4_linear_2001_15)"/>
</g>
<g filter="url(#filter4_ii_2001_15)">
<path d="M352.443 660.345C359.336 663.396 368.782 657.153 373.542 646.4C378.301 635.647 376.572 624.457 369.679 621.406C362.786 618.355 353.34 624.598 348.581 635.351C343.821 646.104 345.55 657.294 352.443 660.345Z" fill="url(#paint5_linear_2001_15)"/>
</g>
<g filter="url(#filter5_ii_2001_15)">
<path d="M424.318 615.739C420.591 614.089 418.659 609.772 419.965 605.662C432.733 565.473 456.83 549.348 457.85 548.682C461.692 546.169 466.722 547.267 469.085 551.137C471.44 554.993 470.255 560.146 466.442 562.667C466.032 562.946 446.219 576.692 435.489 610.467C434.085 614.884 429.472 617.391 425.186 616.064C424.886 615.971 424.597 615.863 424.318 615.739Z" fill="url(#paint6_linear_2001_15)"/>
</g>
<path d="M535.444 683.56C536.338 682.339 538.085 682.223 538.295 683.37L541.508 700.933C541.594 701.405 541.976 701.708 542.511 701.729L562.409 702.497C563.709 702.547 563.787 704.11 562.536 705.049L543.389 719.407C542.874 719.793 542.535 720.347 542.498 720.862L541.11 740.026C541.019 741.278 539.321 742.361 538.338 741.793L523.292 733.104C522.887 732.87 522.295 732.91 521.737 733.208L500.982 744.283C499.625 745.007 498.498 744.113 499.141 742.824L508.989 723.096C509.254 722.565 509.227 722.036 508.92 721.705L497.48 709.386C496.732 708.581 497.734 706.945 499.115 706.717L520.247 703.213C520.815 703.119 521.391 702.752 521.759 702.25L535.444 683.56Z" fill="#3366CC"/>
<path fill-rule="evenodd" clip-rule="evenodd" d="M606.215 767.629C542.186 873.939 381.15 980.774 139.957 890.586L111.238 967.393C391.545 1072.21 593.245 948.097 676.459 809.936C697.11 775.649 710.941 739.727 716.396 705.516C721.784 671.728 719.408 636.561 703.608 606.87C686.923 575.519 657.579 554.823 619.583 548.832C583.381 543.123 541.319 550.906 494.921 570.105L526.274 645.874C564.994 629.852 591.037 627.344 606.811 629.831C620.792 632.035 627.297 638.021 631.22 645.393C636.028 654.427 639.019 670.026 635.419 692.603C631.887 714.757 622.375 740.798 606.215 767.629Z" fill="url(#paint7_linear_2001_15)"/>
</g>
<defs>
<filter id="filter0_ii_2001_15" x="427.958" y="523.906" width="175.08" height="154.638" filterUnits="userSpaceOnUse" color-interpolation-filters="sRGB">
<feFlood flood-opacity="0" result="BackgroundImageFix"/>
<feBlend mode="normal" in="SourceGraphic" in2="BackgroundImageFix" result="shape"/>
<feColorMatrix in="SourceAlpha" type="matrix" values="0 0 0 0 0 0 0 0 0 0 0 0 0 0 0 0 0 0 127 0" result="hardAlpha"/>
<feOffset dx="2" dy="-5"/>
<feGaussianBlur stdDeviation="2"/>
<feComposite in2="hardAlpha" operator="arithmetic" k2="-1" k3="1"/>
<feColorMatrix type="matrix" values="0 0 0 0 0 0 0 0 0 0 0 0 0 0 0 0 0 0 0.25 0"/>
<feBlend mode="normal" in2="shape" result="effect1_innerShadow_2001_15"/>
<feColorMatrix in="SourceAlpha" type="matrix" values="0 0 0 0 0 0 0 0 0 0 0 0 0 0 0 0 0 0 127 0" result="hardAlpha"/>
<feOffset dx="-2" dy="4"/>
<feGaussianBlur stdDeviation="2.5"/>
<feComposite in2="hardAlpha" operator="arithmetic" k2="-1" k3="1"/>
<feColorMatrix type="matrix" values="0 0 0 0 0.317647 0 0 0 0 0.517647 0 0 0 0 0.917647 0 0 0 1 0"/>
<feBlend mode="normal" in2="effect1_innerShadow_2001_15" result="effect2_innerShadow_2001_15"/>
</filter>
<filter id="filter1_ii_2001_15" x="572.437" y="610.035" width="35.014" height="68.4534" filterUnits="userSpaceOnUse" color-interpolation-filters="sRGB">
<feFlood flood-opacity="0" result="BackgroundImageFix"/>
<feBlend mode="normal" in="SourceGraphic" in2="BackgroundImageFix" result="shape"/>
<feColorMatrix in="SourceAlpha" type="matrix" values="0 0 0 0 0 0 0 0 0 0 0 0 0 0 0 0 0 0 127 0" result="hardAlpha"/>
<feOffset dx="2" dy="-5"/>
<feGaussianBlur stdDeviation="2"/>
<feComposite in2="hardAlpha" operator="arithmetic" k2="-1" k3="1"/>
<feColorMatrix type="matrix" values="0 0 0 0 0 0 0 0 0 0 0 0 0 0 0 0 0 0 0.25 0"/>
<feBlend mode="normal" in2="shape" result="effect1_innerShadow_2001_15"/>
<feColorMatrix in="SourceAlpha" type="matrix" values="0 0 0 0 0 0 0 0 0 0 0 0 0 0 0 0 0 0 127 0" result="hardAlpha"/>
<feOffset dx="-2" dy="4"/>
<feGaussianBlur stdDeviation="2.5"/>
<feComposite in2="hardAlpha" operator="arithmetic" k2="-1" k3="1"/>
<feColorMatrix type="matrix" values="0 0 0 0 0.317647 0 0 0 0 0.517647 0 0 0 0 0.917647 0 0 0 1 0"/>
<feBlend mode="normal" in2="effect1_innerShadow_2001_15" result="effect2_innerShadow_2001_15"/>
</filter>
<filter id="filter2_ii_2001_15" x="488.534" y="655.72" width="116.822" height="142.032" filterUnits="userSpaceOnUse" color-interpolation-filters="sRGB">
<feFlood flood-opacity="0" result="BackgroundImageFix"/>
<feBlend mode="normal" in="SourceGraphic" in2="BackgroundImageFix" result="shape"/>
<feColorMatrix in="SourceAlpha" type="matrix" values="0 0 0 0 0 0 0 0 0 0 0 0 0 0 0 0 0 0 127 0" result="hardAlpha"/>
<feOffset dx="2" dy="-5"/>
<feGaussianBlur stdDeviation="2"/>
<feComposite in2="hardAlpha" operator="arithmetic" k2="-1" k3="1"/>
<feColorMatrix type="matrix" values="0 0 0 0 0 0 0 0 0 0 0 0 0 0 0 0 0 0 0.25 0"/>
<feBlend mode="normal" in2="shape" result="effect1_innerShadow_2001_15"/>
<feColorMatrix in="SourceAlpha" type="matrix" values="0 0 0 0 0 0 0 0 0 0 0 0 0 0 0 0 0 0 127 0" result="hardAlpha"/>
<feOffset dx="-2" dy="4"/>
<feGaussianBlur stdDeviation="2.5"/>
<feComposite in2="hardAlpha" operator="arithmetic" k2="-1" k3="1"/>
<feColorMatrix type="matrix" values="0 0 0 0 0.317647 0 0 0 0 0.517647 0 0 0 0 0.917647 0 0 0 1 0"/>
<feBlend mode="normal" in2="effect1_innerShadow_2001_15" result="effect2_innerShadow_2001_15"/>
</filter>
<filter id="filter3_ii_2001_15" x="350.55" y="585.995" width="102.879" height="135.247" filterUnits="userSpaceOnUse" color-interpolation-filters="sRGB">
<feFlood flood-opacity="0" result="BackgroundImageFix"/>
<feBlend mode="normal" in="SourceGraphic" in2="BackgroundImageFix" result="shape"/>
<feColorMatrix in="SourceAlpha" type="matrix" values="0 0 0 0 0 0 0 0 0 0 0 0 0 0 0 0 0 0 127 0" result="hardAlpha"/>
<feOffset dx="2" dy="-5"/>
<feGaussianBlur stdDeviation="2"/>
<feComposite in2="hardAlpha" operator="arithmetic" k2="-1" k3="1"/>
<feColorMatrix type="matrix" values="0 0 0 0 0 0 0 0 0 0 0 0 0 0 0 0 0 0 0.25 0"/>
<feBlend mode="normal" in2="shape" result="effect1_innerShadow_2001_15"/>
<feColorMatrix in="SourceAlpha" type="matrix" values="0 0 0 0 0 0 0 0 0 0 0 0 0 0 0 0 0 0 127 0" result="hardAlpha"/>
<feOffset dx="-2" dy="4"/>
<feGaussianBlur stdDeviation="2.5"/>
<feComposite in2="hardAlpha" operator="arithmetic" k2="-1" k3="1"/>
<feColorMatrix type="matrix" values="0 0 0 0 0.317647 0 0 0 0 0.517647 0 0 0 0 0.917647 0 0 0 1 0"/>
<feBlend mode="normal" in2="effect1_innerShadow_2001_15" result="effect2_innerShadow_2001_15"/>
</filter>
<filter id="filter4_ii_2001_15" x="343.893" y="616.632" width="34.3365" height="48.4869" filterUnits="userSpaceOnUse" color-interpolation-filters="sRGB">
<feFlood flood-opacity="0" result="BackgroundImageFix"/>
<feBlend mode="normal" in="SourceGraphic" in2="BackgroundImageFix" result="shape"/>
<feColorMatrix in="SourceAlpha" type="matrix" values="0 0 0 0 0 0 0 0 0 0 0 0 0 0 0 0 0 0 127 0" result="hardAlpha"/>
<feOffset dx="2" dy="-5"/>
<feGaussianBlur stdDeviation="2"/>
<feComposite in2="hardAlpha" operator="arithmetic" k2="-1" k3="1"/>
<feColorMatrix type="matrix" values="0 0 0 0 0 0 0 0 0 0 0 0 0 0 0 0 0 0 0.25 0"/>
<feBlend mode="normal" in2="shape" result="effect1_innerShadow_2001_15"/>
<feColorMatrix in="SourceAlpha" type="matrix" values="0 0 0 0 0 0 0 0 0 0 0 0 0 0 0 0 0 0 127 0" result="hardAlpha"/>
<feOffset dx="-2" dy="4"/>
<feGaussianBlur stdDeviation="2.5"/>
<feComposite in2="hardAlpha" operator="arithmetic" k2="-1" k3="1"/>
<feColorMatrix type="matrix" values="0 0 0 0 0.317647 0 0 0 0 0.517647 0 0 0 0 0.917647 0 0 0 1 0"/>
<feBlend mode="normal" in2="effect1_innerShadow_2001_15" result="effect2_innerShadow_2001_15"/>
</filter>
<filter id="filter5_ii_2001_15" x="417.557" y="547.333" width="54.7389" height="73.0864" filterUnits="userSpaceOnUse" color-interpolation-filters="sRGB">
<feFlood flood-opacity="0" result="BackgroundImageFix"/>
<feBlend mode="normal" in="SourceGraphic" in2="BackgroundImageFix" result="shape"/>
<feColorMatrix in="SourceAlpha" type="matrix" values="0 0 0 0 0 0 0 0 0 0 0 0 0 0 0 0 0 0 127 0" result="hardAlpha"/>
<feOffset dx="2" dy="3"/>
<feGaussianBlur stdDeviation="2"/>
<feComposite in2="hardAlpha" operator="arithmetic" k2="-1" k3="1"/>
<feColorMatrix type="matrix" values="0 0 0 0 0 0 0 0 0 0 0 0 0 0 0 0 0 0 0.25 0"/>
<feBlend mode="normal" in2="shape" result="effect1_innerShadow_2001_15"/>
<feColorMatrix in="SourceAlpha" type="matrix" values="0 0 0 0 0 0 0 0 0 0 0 0 0 0 0 0 0 0 127 0" result="hardAlpha"/>
<feOffset dx="-2" dy="4"/>
<feGaussianBlur stdDeviation="2.5"/>
<feComposite in2="hardAlpha" operator="arithmetic" k2="-1" k3="1"/>
<feColorMatrix type="matrix" values="0 0 0 0 0.317647 0 0 0 0 0.517647 0 0 0 0 0.917647 0 0 0 1 0"/>
<feBlend mode="normal" in2="effect1_innerShadow_2001_15" result="effect2_innerShadow_2001_15"/>
</filter>
<linearGradient id="paint0_linear_2001_15" x1="626.076" y1="319.472" x2="-769.675" y2="725.869" gradientUnits="userSpaceOnUse">
<stop stop-color="white"/>
<stop offset="1" stop-color="#DFEAFF"/>
</linearGradient>
<linearGradient id="paint1_linear_2001_15" x1="586.663" y1="547.77" x2="456.915" y2="672.909" gradientUnits="userSpaceOnUse">
<stop stop-color="#3366CC"/>
<stop offset="1" stop-color="#0B3EA4"/>
</linearGradient>
<linearGradient id="paint2_linear_2001_15" x1="607.806" y1="618.148" x2="552.925" y2="627.149" gradientUnits="userSpaceOnUse">
<stop stop-color="#3366CC"/>
<stop offset="1" stop-color="#0B3EA4"/>
</linearGradient>
<linearGradient id="paint3_linear_2001_15" x1="595.988" y1="672.621" x2="438.298" y2="759.031" gradientUnits="userSpaceOnUse">
<stop stop-color="#3366CC"/>
<stop offset="1" stop-color="#0B3EA4"/>
</linearGradient>
<linearGradient id="paint4_linear_2001_15" x1="446.717" y1="600.578" x2="298.068" y2="670.495" gradientUnits="userSpaceOnUse">
<stop stop-color="#3366CC"/>
<stop offset="1" stop-color="#0B3EA4"/>
</linearGradient>
<linearGradient id="paint5_linear_2001_15" x1="375.031" y1="623.775" x2="328.128" y2="644.165" gradientUnits="userSpaceOnUse">
<stop stop-color="#3366CC"/>
<stop offset="1" stop-color="#0B3EA4"/>
</linearGradient>
<linearGradient id="paint6_linear_2001_15" x1="465.826" y1="548.139" x2="401.172" y2="555.62" gradientUnits="userSpaceOnUse">
<stop stop-color="#3366CC"/>
<stop offset="1" stop-color="#0B3EA4"/>
</linearGradient>
<linearGradient id="paint7_linear_2001_15" x1="626.076" y1="319.71" x2="-769.675" y2="726.107" gradientUnits="userSpaceOnUse">
<stop stop-color="white"/>
<stop offset="1" stop-color="#DFEAFF"/>
</linearGradient>
<clipPath id="clip0_2001_15">
<rect width="749" height="826" fill="white"/>
</clipPath>
</defs>
</svg>
