<svg width="714" height="379" viewBox="0 0 714 379" fill="none" xmlns="http://www.w3.org/2000/svg">
<g clip-path="url(#clip0_2031_15)">
<path fill-rule="evenodd" clip-rule="evenodd" d="M110.458 828.787C203.009 903.266 343.369 914.227 521.214 840.636C559.935 824.614 585.977 822.105 601.752 824.593C615.733 826.797 622.237 832.783 626.161 840.155C630.968 849.189 633.96 864.788 630.36 887.365C626.827 909.519 617.316 935.56 601.156 962.391C537.126 1068.7 376.09 1175.54 134.898 1085.35L106.178 1162.15C386.485 1266.97 588.186 1142.86 671.399 1004.7C692.05 970.411 705.881 934.489 711.337 900.277C716.724 866.49 714.349 831.323 698.548 801.632C681.864 770.28 652.519 749.584 614.523 743.593C578.321 737.885 536.259 745.668 489.862 764.867C326.957 832.276 222.005 813.299 161.868 764.904C100.359 715.405 71.569 624.074 85.3262 517.369C112.628 305.609 305.213 63.037 659.208 83.185L663.868 1.31748C262.362 -21.5346 36.1976 257.144 3.99933 506.884C-11.9934 630.928 19.2787 755.41 110.458 828.787Z" fill="url(#paint0_linear_2031_15)"/>
</g>
<defs>
<linearGradient id="paint0_linear_2031_15" x1="621.016" y1="514.472" x2="-774.735" y2="920.869" gradientUnits="userSpaceOnUse">
<stop stop-color="white"/>
<stop offset="1" stop-color="#DFEAFF"/>
</linearGradient>
<clipPath id="clip0_2031_15">
<rect width="714" height="379" fill="white"/>
</clipPath>
</defs>
</svg>
