<svg width="212" height="212" viewBox="0 0 212 212" fill="none" xmlns="http://www.w3.org/2000/svg">
<g filter="url(#filter0_ii_1_49)">
<circle cx="106" cy="106" r="106" fill="url(#paint0_linear_1_49)"/>
</g>
<path d="M158.057 97.1862C162.783 99.9145 165.146 101.279 165.939 103.06C166.63 104.613 166.63 106.387 165.939 107.94C165.146 109.721 162.783 111.086 158.057 113.814L87.1074 154.777C82.3818 157.505 80.0191 158.869 78.0802 158.666C76.3891 158.488 74.8528 157.601 73.8533 156.225C72.7074 154.648 72.7074 151.92 72.7074 146.463L72.7074 64.537C72.7074 59.0804 72.7074 56.3521 73.8533 54.7749C74.8528 53.3992 76.3891 52.5122 78.0802 52.3345C80.0191 52.1307 82.3818 53.4949 87.1074 56.2232L158.057 97.1862Z" fill="url(#paint1_linear_1_49)"/>
<defs>
<filter id="filter0_ii_1_49" x="-2" y="-4" width="216" height="220" filterUnits="userSpaceOnUse" color-interpolation-filters="sRGB">
<feFlood flood-opacity="0" result="BackgroundImageFix"/>
<feBlend mode="normal" in="SourceGraphic" in2="BackgroundImageFix" result="shape"/>
<feColorMatrix in="SourceAlpha" type="matrix" values="0 0 0 0 0 0 0 0 0 0 0 0 0 0 0 0 0 0 127 0" result="hardAlpha"/>
<feOffset dx="2" dy="-5"/>
<feGaussianBlur stdDeviation="2"/>
<feComposite in2="hardAlpha" operator="arithmetic" k2="-1" k3="1"/>
<feColorMatrix type="matrix" values="0 0 0 0 0 0 0 0 0 0 0 0 0 0 0 0 0 0 0.25 0"/>
<feBlend mode="normal" in2="shape" result="effect1_innerShadow_1_49"/>
<feColorMatrix in="SourceAlpha" type="matrix" values="0 0 0 0 0 0 0 0 0 0 0 0 0 0 0 0 0 0 127 0" result="hardAlpha"/>
<feOffset dx="-2" dy="4"/>
<feGaussianBlur stdDeviation="2.5"/>
<feComposite in2="hardAlpha" operator="arithmetic" k2="-1" k3="1"/>
<feColorMatrix type="matrix" values="0 0 0 0 0.317647 0 0 0 0 0.517647 0 0 0 0 0.917647 0 0 0 1 0"/>
<feBlend mode="normal" in2="effect1_innerShadow_1_49" result="effect2_innerShadow_1_49"/>
</filter>
<linearGradient id="paint0_linear_1_49" x1="151.456" y1="8.19322e-07" x2="-7.10105e-06" y2="256.692" gradientUnits="userSpaceOnUse">
<stop stop-color="#3366CC"/>
<stop offset="1" stop-color="#0B3EA4"/>
</linearGradient>
<linearGradient id="paint1_linear_1_49" x1="125.381" y1="56.2942" x2="-30.052" y2="320.816" gradientUnits="userSpaceOnUse">
<stop stop-color="white"/>
<stop offset="1" stop-color="white" stop-opacity="0"/>
</linearGradient>
</defs>
</svg>
